<?xml version="1.0" encoding="UTF-8"?><svg id="Layer_0_Image" data-name="Layer 0 Image" xmlns="http://www.w3.org/2000/svg" viewBox="0 0 800 600" x="0px" y="0px" width="800px" height="600px" version="1.1" xmlns:xlink="http://www.w3.org/1999/xlink"><title>1</title><path d="M495.065,505.931c-2.134,13.307-3.321,15.247-15.782,18.534-6.465,1.7-13.272,2.1-19.905,3.2-1.1.182-3.052,1.062-3.011,1.447.907,8.414-5.152,4.455-8.006,4.042a232.664,232.664,0,0,1-27.953-5.472c-4.428-1.209-8.409-3.173-10.825-9.017-2.652-6.416-9.357-11.1-14.013-16.775-1.535-1.869-3.309-4.691-2.9-6.65.342-1.656,3.637-2.755,5.694-3.986,1.293-.773,2.712-1.334,4.075-1.989-1.383-.67-2.782-1.309-4.145-2.016-1.784-.927-3.54-1.908-5.307-2.865a42.431,42.431,0,0,1,3.691-6.014,5.629,5.629,0,0,1,3.885-1.83c9.926.243,13.515-6.82,15.992-14.359,5.629-17.134,10.547-34.5,16.176-51.637,1.515-4.609,3.546-9.987,7.1-12.785,6.354-5.009,14.543-2.08,20.023,5.625,12.3,17.289,19.956,36.838,25.836,56.9C490.035,475.142,492.023,490.691,495.065,505.931Z"/><path d="M295.048,383.057l48.344-6.632.5,1.189c-4.786,1.638-9.461,3.835-14.378,4.814-18.361,3.655-36.9,5.41-55.4,1.373-3.055-.667-5.484-4.334-8.115-6.711-.66-.6-.817-2.066-1.486-2.288-9.189-3.053-9.7-12.01-11.452-18.986-1.579-6.29-.177-13.561,1.022-20.2.476-2.635,3.506-5.68,6.135-6.9,10.035-4.66,12.968-13.934,16.41-23.1,4.642-12.36,9.274-24.732,14.3-36.94,4.4-10.707,17.9-12.1,24.515-2.514,17.8,25.8,28.384,54.481,33.266,85.334a50.6,50.6,0,0,1,.357,9.515c-.174,5.319-2.015,9.51-7.939,10.733-12.895,2.663-25.765,5.453-38.664,8.1-2.547.522-5.18.631-7.774.931Z"/><path d="M380.285,175.352c-.8,2.242-1.3,3.646-1.873,5.238-.679-.649-1.3-.96-1.314-1.3-.2-4.569-.16-9.154-.545-13.705-.1-1.183-1.395-2.3-2.238-3.376-1.082-1.377-2.261-2.677-3.4-4.011,1.412-1.073,2.772-2.227,4.264-3.176.56-.357,1.592,0,2.121-.374,1.685-1.192,3.235-2.576,4.837-3.886a37.532,37.532,0,0,0-4.66-2.841,37.582,37.582,0,0,0-5.536-1.432c3.009-3.39,3.278-9.727,10.519-7.182.751.263,2.973-1.669,3.46-2.975,3.284-8.792,6.692-17.577,9.191-26.605,1.156-4.174.036-8.924.526-13.349.749-6.763,1.949-13.479,3.054-20.2.752-4.579,13.549-12.477,17.5-10.439,2.445,1.261,4.474,3.669,6.194,5.939,16.829,22.213,24.417,48.219,29.976,74.909,1.781,8.551,2.282,17.428,2.691,26.187.315,6.741-2.8,11.625-9.9,13.463-4.676,1.209-9.192,3.026-13.806,4.487-2.2.7-6.917-.523-3.049,4.361-1.227.326-2.675,1.245-3.645.883q-11.458-4.276-22.742-9.016c-2.332-.976-4.18-3.36-6.371.577-.667,1.2-3.917,1.284-5.94,1.16-.471-.029-.3-3.355-1.225-4.541C386.048,181.162,383.262,178.528,380.285,175.352Zm61.708,7.413-.216-2.349c-4.874.414-9.759.738-14.61,1.345-.672.084-1.17,1.563-1.748,2.4.718.374,1.5,1.153,2.146,1.056C432.389,184.5,437.187,183.6,441.993,182.765Z"/><path d="M471.754,274.651a21.207,21.207,0,0,0-1.923-1.671c-2.709-1.572-5.434-3.117-8.154-4.67,2.525-3.016,4.687-8.16,7.639-8.662,10.427-1.776,13.4-9.209,16.038-17.5,3.858-12.1,7.34-24.342,11.909-36.166,1.445-3.739,5.559-8.44,8.981-8.919,4.293-.6,11.458,1.341,13.314,4.544A214.627,214.627,0,0,1,536.8,238.274c4.551,13.06,7.393,26.8,9.985,40.425,1.314,6.915.853,14.281.29,21.371-.173,2.181-2.962,5.178-5.207,5.987-8.212,2.961-16.7,5.157-25.054,7.632l3.23,3.672c-1,.523-2.239,1.71-2.95,1.449-2.355-.864-4.469-2.362-6.774-3.4a13.693,13.693,0,0,0-5.293-1.612c-2.364.009-5.418,1.988-6.97,1.073-7.252-4.271-16.8-3.826-21.78-13.355-3.019-5.781-4.809-14.066-13.253-16.315-1.027-.273-1.823-3.828-1.556-5.695.176-1.231,2.313-2.457,3.818-3.149C467.053,275.55,469.085,275.322,471.754,274.651Z"/><path d="M487.787,529.708l-27.378,4.879-.5-3.5c4.445-.5,8.9-.913,13.332-1.52,4.787-.656,9.549-1.492,14.322-2.25Q487.678,528.514,487.787,529.708Z"/><path d="M542.35,311.416c-5.632,4.11-11.689,7.565-19.352,4.167Z"/></svg>