<?xml version="1.0" encoding="UTF-8"?><svg id="Layer_0_Image" data-name="Layer 0 Image" xmlns="http://www.w3.org/2000/svg" viewBox="0 0 800 600" x="0px" y="0px" width="800px" height="600px" version="1.1" xmlns:xlink="http://www.w3.org/1999/xlink"><title>1</title><path d="M613.277,341.619c.349.273,1.006.552,1,.819-.1,5.638,3.232,10.342,4.224,15.665,1.125,6.031,2.444,12.016,3.777,18a217.277,217.277,0,0,1,4.347,26.929c.857,9.09,2.008,18.172,2.155,27.288.289,17.841-1.813,35.364-7.393,52.465a122.1,122.1,0,0,1-6.575,15.9c-2.643,5.38-6.152,10.514-9.182,15.721-2.681,4.61-6.252,8.3-9.42,12.307-3.33,4.211-7.9,7.518-12.19,10.88a79.54,79.54,0,0,1-30.1,15.125c-9.993,2.463-20.02,4.8-30.338,5.424-19.948,1.217-39.7-.134-58.9-5.872-27.117-8.1-51.3-21.773-73.586-39.142-27.445-21.389-48.658-48.443-69.407-75.853a493.6,493.6,0,0,0-55.763-61.462c-19.173-18.045-40.652-33.064-61.42-49.05-10.751-8.276-20.776-17.524-27.465-29.653a67.281,67.281,0,0,1-8.381-29.085c-.749-13.9-.487-27.8,1.912-41.574.184-1.054-.006-2.32,1.435-2.772a.9.9,0,0,0,.487-1.391c-3.024-4.01-1.362-8.533-1.146-12.737.581-11.292,2.051-22.492,5.714-33.285.32-.942.346-2.058,2.23-2.395-1.04,7.906-4.207,15.288-4.144,23.182,3.992-21.965,11.324-42.516,25.107-60.944-2.143,1.282-5.591,5.7-7.295,8.849-2.834,5.242-5.9,10.366-8.527,15.711-1.573,3.2-2.424,6.756-3.737,10.1-.312.793-.326,2.466-1.707,2.009-1.306-.432-.635-1.808-.259-2.662,3.175-7.21,5.75-14.685,9.592-21.6,6.723-12.1,15.3-22.587,26.517-30.833a81.036,81.036,0,0,1,28.205-13.811c13.89-3.565,26.787-.521,39.924,3.1,10.907,3.007,20.883,8.609,31.962,11.084,9.85,2.2,19.657,1.758,29.623.54,13.625-1.665,25.452-7.36,36.691-14.693,4.921-3.211,9.677-6.674,14.549-9.962,1.379-.93,2.759-2.659,4.607-.569a.759.759,0,0,0,1.171-.281c.612-1.658-.687-.149-1.026-.565-1.113-1.363.148-1.809.845-2.315,4.374-3.172,8.794-6.281,13.2-9.411a304.343,304.343,0,0,1,35.793-22.451c4.535-2.355,9.006-5.085,14.065-5.977,1.351-.238,4.041-2.278,5.17.96a3.472,3.472,0,0,0,1.411-2.55c.222-1.257,1.139-2.143,2.376-1.349,1,.641,1.373.269,1.91-.39,1.2-1.476,2.427-3.045,3.324.218,1.435-.511,3.593-.611,4.165-1.614,1.49-2.615,4.027-2.1,5.787-1.906,2.481.267,5.675-1.995,7.64,2.6-.531-5.328-.545-5.456,4.458-6,22.936-2.493,45.1-.011,66.253,9.866,21.468,10.024,39.093,24.451,51.369,44.8,4.722,7.826,9.431,15.876,10.556,25.369.246,2.079,2.287,3.979.2,6.124,4.094,4.02,2.35,9.307,1.954,13.7-.318,3.522,1.173,7.535-1.351,10.847-.556.729.22,1.255.593,1.749a3.125,3.125,0,0,1-.206,3.71c-2.8,1.642-1.434,3.7-1.206,5.846.4,3.787-.928,7.427-2.3,10.8a46.25,46.25,0,0,0-3.334,11.217c-.171,1.255.423,2.879-1.817,2.72-.136-.009-.293.279-.44.429,3.117,1.5-1.107,3.782.569,5.469.176.178.194.863.063.943-3.741,2.251-1.792,6.777-3.93,9.755-1.184,1.649.043,4.15-1.065,6.081-.13.225.115.866.041.892-3.27,1.13-1.87,5.2-4.348,6.852-1.172.782-.635,1.984-.365,3.062.153.606,1.61-.952.99.5-1,2.341-1.026,4.833-1.588,7.2-.837,3.534-2.79,1.18-4.47.108,1.333,1.7.562,4.414,3.067,5.369.684.261.246.7.124,1.056-1.368,4.014-1.817,8.234-2.81,12.327a17.621,17.621,0,0,1-2.25,5.5,3.58,3.58,0,0,0-.461,3.483c.618,1.256,1.627,1.54-.732,1.847-1.46.19.206,1.6.544,2.338.524,1.141,1.273,2.079.534,3.44-.8,1.471-2.069.4-3.185.436.46,1.387,1.693.983,2.327,1.611.479.474,1.3.981.584,1.622-3.02,2.7-.639,5.253-.179,8.042a61.5,61.5,0,0,1,.647,12.909c-.279,5.779,1.214,11.268,1.973,16.878.914,6.764,3.081,13.29,3.777,20.1.246,2.4,2.05,4.749,1.468,7.069-.692,2.757,2.221,4.676,1.063,7.277-1.375-.583-2.485-1.85-4.409-1.784a9.969,9.969,0,0,0,.479,1.44c.534,1,.438,2.238-.453,2.538-1.167.392-1.262-.8-1.313-1.752-.074-1.381-1.285-.77-1.955-1.105-.277.5.154.611.337.855,2.783,3.71,2.77,3.7,5.852.549A6.086,6.086,0,0,1,613.277,341.619Zm-15.346-82.743c-1.682,1.625-2.384.943-2.281-1.062.148-2.859.616-5.7.887-8.546.69-7.279,2.7-14.345,4.534-21.409.324-1.247.486-4.341,3.467-2.312.6-1.075,2.332-.024,2.8-1.612.619-2.117-1.557-.862-1.663-1.439-.38-2.075-2.37-3.914-1.724-5.942.987-3.1,1.742-6.241,2.622-9.359,1.034-3.664,2.341-7.25,3.413-10.9,2.007-6.84,4.026-13.679,5.848-20.569.928-3.5,1.954-6.978,2.908-10.467,1-3.652,1.082-7.544,1.826-11.279a83.863,83.863,0,0,0,.429-29.011c-1.539-10.164-5.846-19.55-11.4-28.276-14.487-22.766-35.128-37.079-61.03-43.8-16.365-4.249-32.979-3.561-49.546-.942-2.827.447-5.611,1.258-5.473-3.643-.857,3.185-2.392,4.069-5.275,3.361-1.793-.44-3.481,1.668-5.544,1.07.394,3.731-2.684,1.221-3.866,2.133-.25.193-.7.127-.947.322-1.9,1.522-2.514.4-2.889-1.74-.025,3.661-1.63,5.248-4.96,5.054-1.563-.091-3.346,1.263-3.493,1.942-.481,2.22-2.261,2.585-3.667,3.022a28.005,28.005,0,0,0-7.482,3.742c-3.424,2.286-7.415,3.943-10.684,6.647-1.808,1.495-4.536,1.591-5.91,2.882-1.933,1.816-4.913,2.233-6.155,4.813-.072.149-.655.222-.875.1-1.209-.659-1.41-.719-1.637.68A2.031,2.031,0,0,1,428.5,84.2c-2.171.327-3.407,2.65-5.873,2.454a2.9,2.9,0,0,0-2.652,1.812c-1.607,3.788-5.19,5.548-8.316,7.559-5.753,3.7-11.392,7.588-17.163,11.262-4.831,3.076-9.628,6.373-14.666,8.952a91.309,91.309,0,0,1-22.616,8.056c-18.031,3.849-35.72,3.424-53.032-2.943-10.9-4.008-21.489-8.866-32.888-11.408-5.287-1.178-10.712-2.465-16.055-1.563-10.564,1.782-20,6.427-28.735,12.618-1.188.843-2.338,3.155-4.59,1.289-.678-.562-.694.579-.884.992-2.536,5.5-7.547,9-11.5,13.207-3.135,3.338-5.491,7.148-8.126,10.684-3.734,5.012-6.167,10.991-9.174,16.547-.059.11-.336.1-.289.09-1.234-.569.845-1.385-.787-2.181.392,2.308-3.243,3.72-.736,6.419a2.133,2.133,0,0,1-1.772,2.417c-.756.114-2.209.905-1.346,2.292.8,1.292.756,4.258-.3,5.05-1.439,1.083-1.414,1.077-1.1,2.606a3.513,3.513,0,0,1,.075,1.661,121.4,121.4,0,0,0-3.629,18.141c-.676,4.507-2.209,9.123-.561,13.692,1.526,4.234.836,8.557,1.077,12.851.326,5.828-1.112,11.511-1.1,17.334.013,6.985,1.342,13.843,1.478,20.777.275,13.971,6.3,26.174,12.922,37.676,4.867,8.452,12.852,15,20.769,21.09,13.781,10.6,28.164,20.429,41.305,31.86,12.271,10.675,24.408,21.5,35.646,33.282,11.7,12.266,23.786,24.231,33.789,37.967a670.328,670.328,0,0,0,46.814,57.633c16.735,18.32,36.482,32.994,58.252,45.042,30.119,16.667,62.063,21.522,95.763,15.772,12.376-2.112,24.579-4.765,35.728-11.184,28.535-16.429,43-42.487,50.1-73.316,4.855-21.073,3.547-42.464.762-63.726-1.1-8.412-1.229-16.962-3.462-25.223-1.452-5.37-1.68-11-3.657-16.291-.707-1.893.367-4.577-.56-6.234-1.684-3.011-2.092-6.356-3.438-9.4-1.065-2.412-.078-5.258-1.156-7.463-2.146-4.387-2.436-9.179-3.7-13.743-2.714-9.782-3.076-19.952-4.616-29.93-.609-3.943-.151-7.893-.26-11.837-.2-7.312.9-11.559,3.519-16.394a4.58,4.58,0,0,0,.153-1.618c.9.824,1.3,2.528,3.106,1.723,2.226-.994.006-2.186.153-3.269.1-.736.611-1.625-.818-1.577-1.024.034-1.709.267-1.567,1.545A1.463,1.463,0,0,1,597.931,258.876Zm-17.564,268.19c5.895-4.819,11.968-9.483,15.42-16.558A152.632,152.632,0,0,1,580.367,527.066Zm45-378.518c.341-1.023,1.059-.393,1.829-.348,1.089.065,1.795-.735,1.918-1.916.069-.666.3-1.465-.591-1.647-1.591-.324-.8,1.224-1.263,1.817-.673.855-1.573.634-2.4.845-.483.123-.591.639-.426,1.1C624.572,148.77,624.887,148.829,625.367,148.548Z"/></svg>