<?xml version="1.0" encoding="UTF-8"?><svg id="Layer_0_Image" data-name="Layer 0 Image" xmlns="http://www.w3.org/2000/svg" viewBox="0 0 800 600" x="0px" y="0px" width="800px" height="600px" xmlns:xlink="http://www.w3.org/1999/xlink" version="1.1"><title>1</title><path d="M288.76,280.922c-7.158,4.312-13.074,8.123-19.221,11.513-6.551,3.613-12.614,6.807-21.043,2.6-4.153-2.073-10.6-2.2-16.114-2.233-1.122-.006-2.272.46-3.364.33-2.442-.29-4.561-1.639-4.888-4.062-.975-7.217-15.161-11.576-5.754-20.532,11.75-11.187,19.274-25.414,29.516-37.517,18-21.27,40.656-37.616,62.536-54.646,18.079-14.073,36.463-27.755,54.716-41.6C378.02,125,392.024,117.01,406,108.988a24.994,24.994,0,0,1,4.659-2.006c1.6-.523,3.586-1.213,4.783.251,1.318,1.613-.306,3.088-1.179,4.481-1.6,2.547-4.483,4.283-5.141,9.286,5.162-3.018,9.353-5.616,13.684-7.955,3.618-1.955,6.917-2.349,6.4,3.381-.2,2.154-.2,3.107,2.318,2.947,9.6-.611,9.343,4.7,6.273,12.16l6.387-2.728c.755,4.686-4.2,6.408-3.974,10.2,1.444.513,2.519-1.672,4.144-.213a6.752,6.752,0,0,1-1.046,1.971c-3.311,3.084-6.858,5.928-10.018,9.155-4.739,4.841-4.527,6.741,1.071,11.391,1.9,1.577,1.017,2.989.243,4.434A44.163,44.163,0,0,1,431.818,170c-.8,1.147-1.663,2.248-2.557,3.449,2.23,1.67,2.969-.751,4.275-1.312,1.491-.642,2.878-1.526,5.428-2.913-1.679,5.664-5.219,8.642-8.326,11.572-36.842,34.738-74.972,68.01-114.851,99.224-5.618,4.4-10.666,10.079-19.755,9.169C290.323,288.615,287.709,287.838,288.76,280.922ZM391.211,134.149c-12.471,6.933-24.438,14.881-33.8,26.109Z"/><path d="M669.245,124.746c6.521-1.2,10.225-4.428,14.454-6.578,2.3-1.169,4.684-4.41,7.342-1.051,2.531,3.2-.474,5.015-2.494,6.962-1.138,1.1-2.106,2.371-3.321,3.759,3.678,1.114,5.85-.755,8.309-2.167,1.9-1.093,3.9-4.574,6.371-1.378,1.515,1.961,3.314,3.976,1.819,7.551-1.556,3.723-3.3,6.956-6.8,9.506,1.017.221,1.6.548,1.878.377,2.226-1.368,4.406-5.444,6.9-2.708,2.236,2.455-1.552,4.721-3.261,6.821-34.643,42.571-81.363,71.983-120.1,110.112-8.951,8.811-21.776,9.624-33.02,13.284-2.266-3.519,2.022-4.911,1.183-7.478-15.712,6.716-40.047-9.482-32-29.755-2.872-1.571-6.585,4.445-8.72-.51-2.412-5.6-3.714-11.7,1.19-16.708,6.327-6.464,12.958-12.645,19.662-18.722,13.377-12.128,26.92-24.073,40.337-36.157a64.112,64.112,0,0,1,14.428-10.367c2.608-1.282,6.1-2.81,8-.685,5.081,5.7,8.831,1.871,12.948-.854,21.02-13.915,42.641-26.77,65.643-37.185a43.524,43.524,0,0,1,5.454-2.277,3.23,3.23,0,0,1,3.815,1.049c.975,1.539-.363,2.587-1.262,3.633C675.151,116.537,671.37,119.165,669.245,124.746ZM607.1,225.356c9.322-5.829,16.716-13.784,24.219-21.627-9.066,6.1-17.683,12.706-24.562,21.281-8.135,3.968-12.692,11.592-18.362,18.1C594.665,237.213,602.337,232.826,607.1,225.356Zm36.788-85.763c-10.235,7.183-22.308,11.717-30.227,21.987C623.84,154.334,636.52,150.7,643.891,139.593Z"/><path d="M217,114.564c4.94-1.6,7.788-3,10.757-3.348,2.84-.328,4.962-4.951,8.29-1.564,3.206,3.263-2.041,5.4-1.314,8.612,4.028,2.821,6.987-6.635,11.589-.993,3.405,4.173,1.877,7.742-.2,11.664,2.481.3,4.131-2.4,7.035-.668-4.655,4.815-3.841,10.443-2.043,16.045,1.506,4.693-2.515,6.913-4.755,8.869-25.457,22.23-45.456,49.36-67.659,74.505-3.251,3.682-6.884,7.114-12.283,8.292,8.132-14.829,21.584-25.343,32.58-40.723-10.665,8.411-17.888,17.158-25.47,25.543-3.778,4.179-7.477,8.456-11.553,12.329-2.232,2.121-4.679,5.5-8.517,1.8-1.52-1.469-3.392-.488-4.551.724-4.128,4.318-10.639,4.124-14.94,8.09a6.281,6.281,0,0,1-2.858,1.148c-2.731-5.094-9.6-4.147-12.247-7.245-3.82-4.464-5.4-5.439-9.084-.69a5.079,5.079,0,0,1-4.462,1.366c-2.11-.671-1.083-2.851-.767-4.426,2.02-10.038,2-10.074-7.864-7.555-.908-3.293-1.821-6.754-.158-9.874,9.58-17.978,16.387-37.416,33.642-50.8,20.971-16.267,40.616-34.241,60.886-51.417,7.809-6.617,17.467-8.982,27.1-11.273,1.877-.447,4.355-1.379,5.594.426,1.513,2.2-1.149,3.252-2.334,4.691C220.207,109.571,219.237,111.26,217,114.564Z"/><path d="M434.185,421.4c1.2,1.563,1.284,3.178-.193,4.524-18.719,17.06-37.355,34.215-57.3,49.862a12.718,12.718,0,0,1-2.954,1.078l3.03-5.95c-7.162,5.653-16.134,9.1-17.827,19.921-1.184,7.57-6.418,8.82-12.58,3.927-2.07-1.644-3.827-1.672-6.172-1.476a23.307,23.307,0,0,1-24.5-28.34c1.061-4.825,1.444-9-1.132-13.662-2.671-4.839-1.6-9.98,2.476-14.012a49.894,49.894,0,0,1,7.687-6.636c32.306-20.881,59.112-48.613,89.609-71.736a146.81,146.81,0,0,1,13.332-8.961c2.393-1.431,5.649-2.732,7.94-.462,2.861,2.837-.573,4.971-1.884,7.235-.7,1.215-1.506,2.374-2.619,4.114,4.793-.571,7.888-3.576,11.561-5.206,2.132-.945,5.469-2.345,6.18-.38,3.43,9.48,15.521,8.369,19.7,17.035,2.3,4.771,1.069,8.256-1.689,11.459-8.99,10.442-17.582,21.285-28.129,30.269a28.389,28.389,0,0,0-6.037,6.95.981.981,0,0,0,.084.664c.525.015,1.051-.031,1.577-.062Z"/><path d="M434.339,421.551l15.389-14.434,1.48,1.707c-5.547,4.334-7.5,12.875-16.989,12.6C434.185,421.4,434.339,421.551,434.339,421.551Z"/></svg>