<?xml version="1.0" encoding="UTF-8"?><svg id="Layer_0_Image" data-name="Layer 0 Image" xmlns="http://www.w3.org/2000/svg" viewBox="0 0 800 600" x="0px" y="0px" width="800px" height="600px" version="1.1" xmlns:xlink="http://www.w3.org/1999/xlink"><title>1</title><path d="M613.422,209.485l5.309-2.67c-10.426,23.523-15.308,47.416-24.454,69.874-2.362,5.8-5.812,10.014-12.4,10.813-.971.118-2.511.7-2.828.3-5.628-7.059-13.646-4.251-20.738-5.208a9.061,9.061,0,0,1-2.888-.835c-4.686-2.407-11.228-15.988-10.481-21.371,3.228-23.258,10.554-45.224,20.433-66.455,1.845-3.964,4.835-6.47,8-8.876,8.555-6.512,10.37-5.765,12.333,4.456.131.679.777,1.26,1.221,1.944,2.975-.127,2.963-3.092,4.439-4.564,1.45-1.445,3.378-2.475,4.561-.815,4.548,6.386,13.37,7.2,17.575,14.312C615.578,203.9,612.994,206.1,613.422,209.485Z"/><path d="M232.492,103.91c3.678-1.179,3.665-4.829,5.509-7.032,1.108-1.323,2.665-4.133,3.686-3.064,3.6,3.769,10.714,2.877,12.289,6.994s9.632,4.86,6.038,11.425c-.044.082,5.512-1.94,3.259,3.014a44.113,44.113,0,0,0-2.709,7.817c-1.618,6.686.156,13.493.14,20.2-.019,8.5-6.011,15.562-4.075,24.3.638,2.881-4.56,2.056-6.032,4.7-2.595,4.665-4.011,1.151-5.784-1-1.7-2.059-3.754-.807-5.489.148-2.864,1.578-5.515,3.558-8.434,5.01-5.988,2.979-11.261,8.022-19.217,3.719-3.309-1.79-8.316-.674-12.533-.489-4.757.208-8.2-1.109-10.547-5.652-2.515-4.867-9.038-7.464-6.9-14.925,3.382-11.808,8.744-22.827,18.649-29.672,9.763-6.747,14.413-15.81,18.158-26.094,1.583-4.349,3.619-8.34,7.536-11.137,1.7-1.215,3.413-2.571,5.514-1.7,2.782,1.154,1.7,3.9,1.791,5.989C233.441,98.859,231.533,101.132,232.492,103.91Z"/><path d="M406.01,147.1c3.3-6.7,8.156-3.39,11.592-4.606,4.777-1.69,6.851.212,10.463,2.366,3.309,1.973,8.021,1.432,11.676,4.3,5.391,4.233,7.913,8.456,6.789,16-1.89,12.7-6.727,24.644-8.38,37.5-.632,4.915-6.768,12.433-13.315,16.142-3.193,1.809-3.977-1-4.848-2.954-1.238-2.781-3.572-4.686-5.789-2.559-5.247,5.033-10.763,1.462-15.11,0-5.091-1.708-9.059-5.071-15.382-5.354-4.4-.2-8.734-6.452-12.731-10.374-6.756-6.63-6-14.514-2.9-22.5,2.288-5.9,4.767-11.719,7.233-17.545.483-1.142,1.106-2.862,1.99-3.1,8.587-2.295,13.079-9.342,18.961-15.054C401.441,134.347,404.365,136.457,406.01,147.1Z"/><path d="M271.194,314.752c-2.179-1.385.989-3.023-1.137-4.344a13.948,13.948,0,0,0-6.37,8.544c-1.648,7.782-9.549,6.417-13.457,10.585-.919.981-1.731-.038-2.329-.878-2.225-3.126-5.443-3.29-8.781-2.766-2.686.423-5,.458-6.268-2.6-.693-1.674-2.011-2.185-3.64-.993-4.928,3.6-6.79-.4-10.4-3.047-14.343-10.519-10.946-23.693-7.326-37.371,1.744-6.589,3.1-13.3,4.3-20.01,1.149-6.429,4.428-10.6,10.963-11.927a12.46,12.46,0,0,0,2.228-.465c11.964-4.865,11.961-4.871,14.072,8.527,4.994-11.408,10.338-6.926,17.046-2.917,6.414,3.832,13.465,6.2,18.019,12.827,2.01,2.926,3.269,5.439,2.654,8.954-1.325,7.571-.5,15.571-4.89,22.534-.838,1.33-.538,2.673.572,4.735C279.054,308.983,273.393,311.311,271.194,314.752Z"/><path d="M395.321,282.088c4.983-3.531,9.957-5.419,14.112,1.122a4.113,4.113,0,0,0,2.517,1.447c17.84,3.427,25.491,12.955,25,30.385-.254,9.079-3.237,17.919-.643,27.457,2.277,8.371-2.614,11.06-11.331,7.479-1.553-.638-2.753-.259-4.26.377-3.931,1.661-7.858,2.06-11.213-1.536-.854-.915-2.3-1.74-3.43-.94-7.6,5.381-14.074-.6-20.944-2.022-4.613-.952-8.556-.937-12.6-6.363-4.6-6.174-4.548-10.908-3.544-17.023,1.98-12.053,5.672-23.628,9.906-35.042,1.143-3.081,2.423-6.07,5.055-8.347C389.667,274.129,392.545,274.735,395.321,282.088Z"/><path d="M264.964,511.8c-1.086.762-1.5,1.022-1.884,1.328-2.1,1.685-2.149,7.04-6.025,5-3.556-1.873-4.039-6.124-2.488-10.142q7.645-19.809,15.234-39.639c1.9-4.961,3.558-10.026,5.692-14.884,1.518-3.455,3.55-7.946,7.709-7.375,4.946.678,1.026,6.055,2.835,8.905,2.871-.324,3.232-2.784,4.2-4.744,1.794-3.62,3.847-5.906,6.56-.712.459.88.715,2.308,1.8,1.361,6.676-5.81,9.5,2.24,13.012,4.432,4.032,2.519,4.228,7.989,2.365,13.443-5.063,14.826-9.365,29.914-13.863,44.929-1.284,4.289-3.219,7.6-7.731,9.428-2.194.887-3.653,3.192-4.7-.842-.131-.507-1.441-1.259-1.647-1.113-4.108,2.92-8.607,1.908-13.153,2.158-2.531.139-4.952,2.89-8.071.662-3.537-2.527-1.031-5.5-.8-8.295A27.775,27.775,0,0,1,264.964,511.8Z"/><path d="M521.571,111.573a10.071,10.071,0,0,0-1.166-7.686,20.3,20.3,0,0,1,9.4-28c3.1-1.412,5.539-.613,8.94.714a53.919,53.919,0,0,1,15.838,9.433c5.557,4.75,10.612,9.555,8.47,17.971-.678,2.665,3.313,7.613,1.634,7.209-7.729-1.86,1.255,6.123-3.448,5.127-5.022-1.063-7.467,3.589-8.447,6.214-2.877,7.707-8.9,7.663-15.053,7.954-1.764.084-5.853,2.265-3.975-2.96.063-.176-.074-.423-.118-.637-4.771,1.577-5.209-2.348-7.768-4.641C521.8,118.624,522.046,115.186,521.571,111.573Z"/></svg>