<?xml version="1.0" encoding="UTF-8"?><svg id="Layer_0_Image" data-name="Layer 0 Image" xmlns="http://www.w3.org/2000/svg" viewBox="0 0 800 600" x="0px" y="0px" width="800px" height="600px" version="1.1" xmlns:xlink="http://www.w3.org/1999/xlink"><title>1</title><path d="M532.067,430.947H538.7l3.717,5.719,2.66-2.4,7.494,4.21.854,5.54,3.908-2.219,4.449,9.22-2.817.953v4.306c-4.97,1.7-8.737,6.007-14.363,4.534-.33,3.817-3.819,5.072-6.034,5.565-5.253,1.168-9.66,5.308-14.6,5.4-5.767.113-10.143,3.282-15.163,4.715-6.025,1.72-12.228,3.563-18.2,5.865-5.83,2.247-11.956,5.185-18.644,4.971-10.573,6.131-22.857,6.833-34.246,10.32-8.874,2.717-17.821,6.1-27.384,6.8-3.326.244-6.5,3.691-9.967-1.394-2.522,4.619-5.488,7.168-10.445,7a31,31,0,0,0-10.477,1.816c-8.755,2.89-17.877,3.811-26.827,5.652-8.213,1.69-16.663,2.271-24.711,4.053-10.852,2.4-21.517.723-32.228,1.405-1.887.121-3.824-1.413-5.808-1.7-2.148-.316-4.949.751-6.431-.277-1.92-1.332-3.341-.128-4.907-.438-2.315-.458-4.589-1.122-7.344-1.814-1.016-1.785-4.433-2.5-4.424-6.021,0-.884-1.687-2.579-2.52-2.531-6.3.363-7.761-4.825-10.486-9.2-1.056-8.512,3.086-14.48,11.07-18.163a12.868,12.868,0,0,1,3.287-1.126c4.432-.7,9.159-.554,13.25-2.109,4.5-1.709,8.885-1.575,13.4-1.69,4.335-.111,9.447,1.122,12.8-.763,3.727-2.1,8.383,1.229,11.059-2.953,2.938,3.1,5.838-1.538,8.768-.044,3.132-2.693,7.029-1.247,10.475-2.026,3.19-.721,6.48-1.136,9.544-1.944a219.342,219.342,0,0,1,30.635-5.441c4.471-3.917,10.644-.2,15.448-3.657,4.124-2.969,9.65-2.425,14.438-3.485,5.435-1.2,11.137-2.118,16.728-3.031,5.22-.852,10.353-2.292,15.6-3.267,7.734-1.438,15.1-4.79,23.105-5.383,3.367-3.973,8.673-.544,12.693-3.573,3.374-2.541,8.368-2.975,12.457-3.631,9.98-1.6,18.8-6.463,28.509-8.575,2.3-.5,4.592-1.033,7.254-1.633.353,2.3.618,4.031,1.036,6.757Z"/><path d="M374.765,323.934c-.516.516-.959.959-1.4,1.4l-3.952-6.087c-.6,1.692-.982,2.782-1.6,4.518-2.758-.34-6.494.288-8.444-1.29-3.165-2.562-5.235,1.108-7.981.134-2.491-.884-6.111.283-7.923-1.132-2.953-2.306-5.931-1.015-8.772-1.741a77.051,77.051,0,0,1-8.332-3.144l-5.815,1.829-3.379-6.329c-.964,3.107-1.282,4.131-1.8,5.8-8.629-4.962-18.975-2.15-27.611-6.5-.22-.985-.411-1.838-.915-4.09-.765,2.234-1.089,3.182-1.467,4.286l-6.966-1.839c-.161-1.469-.325-2.951-.564-5.119l-2.273,1.647-3.871-1.941-1.727,3.893c-2.1-1.48-4.2-2.968-6.689-4.723-.1-.877-.261-2.359-.474-4.28l-6.612,3.319c-3.3-4.779-10.036-6.994-12.152-13.421l2.092-2.3c-1.8-1.8-2.627-1.3-4.54,2.752a12.908,12.908,0,0,1-1.828.089c-.251-.019-.479-.335-1.282-.945q.881-2.017,1.961-4.5l-2.232-5.747,5.66,2.054c-.57-2.243-.993-3.911-1.71-6.732l7.687,3.476-1.678,2.057,5.255,2.677v-6.333l5.9-3,13.648,5.674c2.073-.812,10.024.213,13.628,1.849l2.272-2.065,6.194,2.952-1.74,1.991c.417.308.984,1.014,1.3.915,3.586-1.117,6.962-3.856,10.869-.205.723.676,3.259-.568,4.952-.954,7.744-1.766,14.851-.661,21.1,4.365,1.461-.4,3.063-1.2,4.649-1.17,1.867.036,4.846,1.734,5.389,1.082,2.813-3.373,4.281.736,6.378.762a14.057,14.057,0,0,1,6.1,1.129c3.661,1.667,7.993,2.021,12.092,2.537a232.632,232.632,0,0,1,40.541,8.8c10.268,3.211,20.73,5.861,30.6,10.148,6.65,2.887,13.879,5.565,19.1,10.273,4.721,4.252,10.312,8.016,13.993,14.079-.517.813-1.142,1.8-1.866,2.931l1.613,1.861-6.994,6.62c-2.877-.87-5.877-2.083-7.562-6.224-.354,2.373-.612,4.1-.89,5.963h-2.681c-.471-1.229-.884-2.309-1.306-3.412l-3.211,2.046-2.792-2.092-4.528,4.2c-2.283-2.813-3.875-5.333-6.011-7.246-2.073-1.857-6.407-.062-7.391-4.834.38-.589,1.011-1.567,1.994-3.088l-6.27-.322,3.093,3.479c-2.381-.122-4.356.324-5.695-.4a44.323,44.323,0,0,0-9.873-3.564,60.2,60.2,0,0,0-9.65-1.6c-2.909-.31-5.73-1.42-8.638-1.752-3.073-.352-6.28.19-9.287-.388C379.786,326.5,377.3,324.99,374.765,323.934Z"/><path d="M315.962,89.493V81.585c3.208-3.385,6.916-5.027,12.51-4.476.521.869,1.482,2.475,2.616,4.369,6.215-3.827,8.582,4.476,13.468,3.158,7.011,4.649,12.241,11.121,19.431,15.174a14.093,14.093,0,0,1,2.68,2.618,145.791,145.791,0,0,0,20.3,16.7,125.827,125.827,0,0,1,13.864,11.9,75.192,75.192,0,0,0,15.734,11.955,14.208,14.208,0,0,1,2.683,2.611c3.564,3.49,6.78,7.476,10.81,10.3,3.245,2.277,5.644,5.3,8.519,7.845,4.969,4.393,9.1,9.74,13.533,14.732,4.463,5.025,9.059,9.951,13.2,15.233,1.727,2.2,2.427,5.212,3.641,7.961l-8.712,7.638c-2.661,1.506-4-3.493-7.141-4.644l-2.586,1.986-12.258-2.534c-10.4-8.5-22.5-17.541-33.808-27.668a109.353,109.353,0,0,0-17.924-13.062c-4.629-2.684-8.248-7.119-12.444-10.645-11.117-9.339-22.288-18.924-31.684-29.911C333.571,112.512,322.774,103.738,315.962,89.493Z"/></svg>